<?xml version="1.0" standalone="no"?><!DOCTYPE svg PUBLIC "-//W3C//DTD SVG 1.1//EN" "http://www.w3.org/Graphics/SVG/1.1/DTD/svg11.dtd"><svg t="1582639449311" class="icon" viewBox="0 0 1963 1024" version="1.1" xmlns="http://www.w3.org/2000/svg" p-id="4218" width="30.671875" height="16" xmlns:xlink="http://www.w3.org/1999/xlink"><defs><style type="text/css"></style></defs><path d="M1152.128 776.618667c108.032-144.64 312.405333-346.453333 319.445333-489.301334C1484.032 100.693333 1296.384 39.936 1103.488 41.813333c-134.528 1.749333-273.450667 40.192-368.085333 74.069334C408.874667 231.04 203.562667 415.872 74.368 620.373333c-137.130667 202.666667-91.989333 396.458667 197.333333 402.688 222.122667-8.917333 366.293333-70.485333 516.821334-147.328 0.768 0-415.957333 118.826667-569.002667 31.274667-0.213333 0-0.512-0.170667-0.682667-0.170667-15.786667-8.96-33.024-21.589333-37.376-55.893333-0.938667-72.32 119.466667-147.328 186.666667-171.434667v-125.354666c49.621333 19.285333 103.509333 29.952 159.914667 29.952 108.16 0 207.146667-38.954667 283.946666-103.466667 3.029333 10.666667 4.565333 22.784 3.584 36.565333h30.378667c3.84-32.213333-14.08-57.685333-14.08-57.685333-27.264-43.264-74.88-42.538667-74.88-42.538667s25.856 11.178667 43.264 38.058667a405.034667 405.034667 0 0 1-381.44 76.245333l98.858667-98.218666-27.434667-71.466667c199.125333-69.589333 366.378667-123.178667 638.890667-170.496l-61.013334-50.944 31.786667-19.584c164.394667 46.336 271.957333 80.469333 266.026667 167.68a217.984 217.984 0 0 1-16.512 49.92c-47.744 94.634667-190.208 252.714667-247.722667 318.805333-38.016 43.733333-75.178667 86.613333-101.76 127.701334-27.434667 41.088-44.245333 79.445333-45.098667 116.053333 3.498667 286.634667 845.056-133.973333 1007.829334-245.546667-240.64 103.594667-499.925333 203.562667-785.792 222.336-78.72 3.626667-70.741333-37.546667-24.746667-100.906666z" p-id="4219" fill="#515151"></path></svg>