<?xml version="1.0" standalone="no"?><!DOCTYPE svg PUBLIC "-//W3C//DTD SVG 1.1//EN" "http://www.w3.org/Graphics/SVG/1.1/DTD/svg11.dtd"><svg t="1582543392520" class="icon" viewBox="0 0 1024 1024" version="1.1" xmlns="http://www.w3.org/2000/svg" p-id="3510" xmlns:xlink="http://www.w3.org/1999/xlink" width="16" height="16"><defs><style type="text/css"></style></defs><path d="M512 149.333333A362.666667 362.666667 0 1 1 149.333333 512 363.093333 363.093333 0 0 1 512 149.333333M512 85.333333a426.666667 426.666667 0 1 0 426.666667 426.666667A426.666667 426.666667 0 0 0 512 85.333333z" fill="#515151" p-id="3511"></path><path d="M492.8 454.4L581.12 512l-88.32 57.6v-115.2m-42.666667-121.6a42.666667 42.666667 0 0 0-42.666666 42.666667v273.066666a42.666667 42.666667 0 0 0 65.706666 35.84l209.493334-136.533333a42.666667 42.666667 0 0 0 0-71.68L473.173333 341.333333a42.666667 42.666667 0 0 0-23.04-6.826666z" fill="#515151" p-id="3512"></path></svg>