<?xml version="1.0" standalone="no"?><!DOCTYPE svg PUBLIC "-//W3C//DTD SVG 1.1//EN" "http://www.w3.org/Graphics/SVG/1.1/DTD/svg11.dtd"><svg t="1611110705525" class="icon" viewBox="0 0 1188 1024" version="1.1" xmlns="http://www.w3.org/2000/svg" p-id="2639" width="74.25" height="64" xmlns:xlink="http://www.w3.org/1999/xlink"><defs><style type="text/css"></style></defs><path d="M659.231572 703.033658l8.744956 2.960238-315.125205-2.960238V396.650765h229.78695l16.972444-33.616952H348.179119c-16.836685 0-23.163556 6.321581-23.163556 23.1662v319.794765c0 16.834041 6.327752 23.160911 23.163556 23.160911h319.797409c16.833159 0 23.155622-6.327752 23.155622-23.160911V497.183382l-31.900578 37.344137v168.506139zM521.337187 151.530169c-211.488657 0-382.955917 171.475193-382.955916 382.99735 0 211.489539 171.466378 382.961206 382.955916 382.961206s382.994705-171.472548 382.994705-382.961206c0-211.521275-171.505166-382.997349-382.994705-382.99735z m240.389328 623.364638c-31.233246 31.227957-67.594457 55.743807-108.072497 72.866996-41.905266 17.722641-86.421678 26.705615-132.316831 26.705615-45.894271 0-90.414209-8.982974-132.308015-26.705615-40.480685-17.123189-76.836606-41.639039-108.063681-72.866996-31.221786-31.221786-55.735873-67.577708-72.855536-108.061036-17.722641-41.889398-26.710905-86.413744-26.710904-132.305371 0-45.913665 8.989145-90.427432 26.710904-132.33358 17.122307-40.480685 41.63375-76.839251 72.860825-108.072497 31.221786-31.221786 81.805892-56.83869 120.925467-73.386227 40.35286-17.064125 83.225185-25.735913 127.419831-25.794976 43.060976 0.991742 84.883377 9.636201 124.338821 26.319497 40.483329 17.124952 76.839251 41.639039 108.072497 72.860825 31.227957 31.239417 55.744689 67.597102 72.872285 108.072497 17.722641 41.906148 26.711786 86.419915 26.711786 132.33358 0 45.888982-8.989145 90.405393-26.711786 132.30537-17.128478 40.484211-41.64521 76.840132-72.873166 108.061918z m-71.85586-424.200021L521.360108 565.163957l-61.278166-61.274639c-8.688537-8.025613-22.61347-8.66738-30.636438 0-8.016798 8.666499-7.360926 27.677081 1.314388 35.680655l69.778051 80.664288c0.494548 0.799564 1.255324 1.405188 1.866238 2.155385l1.949984 2.210922c0.2389 0.22215 0.550086 0.282977 0.794275 0.499838 0.610913 0.466339 0.977637 1.160999 1.611469 1.605299 1.317033 0.861272 2.755719 1.394609 4.188235 1.938524 0.334107 0.111075 0.606505 0.321765 0.944138 0.416972 2.139517 0.699949 4.361018 1.1275 6.561362 1.1275 0.083747 0 0.171902-0.055538 0.276806-0.055537 5.789126 0.027328 11.561502-2.112189 15.806156-6.689187 0.788985-0.855983 1.100172-1.899736 1.727834-2.833295 0.027328-0.03967 0.055538-0.083747 0.083747-0.105786l184.160669-239.172791c9.255373-12.942006 5.745048-23.935792 0-30.639083s-24.093589-10.04524-30.638201 0.001764z" fill="#37BC9B" p-id="2640"></path></svg>