<?xml version="1.0" standalone="no"?><!DOCTYPE svg PUBLIC "-//W3C//DTD SVG 1.1//EN" "http://www.w3.org/Graphics/SVG/1.1/DTD/svg11.dtd"><svg t="1582625601087" class="icon" viewBox="0 0 1025 1024" version="1.1" xmlns="http://www.w3.org/2000/svg" p-id="3494" xmlns:xlink="http://www.w3.org/1999/xlink" width="32.03125" height="32"><defs><style type="text/css"></style></defs><path d="M638.907312 396.874577c0 68.388787-55.449483 123.834176-123.837247 123.834176-68.512613 0-123.897624-55.446413-123.897624-123.834176 0-68.452235 55.385011-123.834176 123.897624-123.834176C583.45783 273.040401 638.907312 328.422342 638.907312 396.874577z" p-id="3495"></path><path d="M214.137094 991.799103c-4.625566 0-9.253178-0.501444-14.001547-1.498192-34.508564-7.751916-56.261004-41.884909-48.508064-76.391425 0.997771-4.872195 26.689106-119.272059 64.760993-213.478053 38.38401-95.07994 153.65475-260.672129 212.103687-281.862746 33.192529-12.066382 69.950427 5.189435 81.952338 38.442341 12.065359 33.254953-4.002343 54.699363-38.38401 81.953361-16.128079 11.566985-104.893917 130.022406-136.962801 209.414309-34.067497 84.202696-58.321018 192.227057-58.573787 193.28623C269.897676 971.545878 243.457246 991.799103 214.137094 991.799103z" p-id="3496"></path><path d="M515.070066 761.506299c-35.382509 0-64.011897-28.630411-64.011897-64.011897 0-35.383532 28.629387-64.011897 64.011897-64.011897 130.650746 0 236.919029-106.271353 236.919029-236.921076 0-130.649723-106.268283-236.922099-236.919029-236.922099-130.648699 0-236.98043 106.272376-236.98043 236.922099 0 22.257977 3.063926 44.259093 9.187684 65.514182 9.689128 34.006096-10.000228 69.383488-43.944923 79.139134-34.068521 9.564279-69.45103-9.941897-79.201559-43.882498-9.31458-32.694155-14.067042-66.63885-14.067042-100.770818 0-201.22542 163.715355-364.942822 365.00627-364.942822 201.224397 0 364.945892 163.717402 364.945892 364.942822C880.014935 597.78685 716.294462 761.506299 515.070066 761.506299z" p-id="3497"></path></svg>