<?xml version="1.0" standalone="no"?><!DOCTYPE svg PUBLIC "-//W3C//DTD SVG 1.1//EN" "http://www.w3.org/Graphics/SVG/1.1/DTD/svg11.dtd"><svg t="1577777057263" class="icon" viewBox="0 0 1024 1024" version="1.1" xmlns="http://www.w3.org/2000/svg" p-id="3265" xmlns:xlink="http://www.w3.org/1999/xlink" width="200" height="200"><defs><style type="text/css"></style></defs><path d="M960.158485 704.071504l0-28.455075-51.225685 0c-15.185864 0-34.136471 7.891737-34.136471 23.063275l0 17.47807c0-1.166569-1.071402 2.139733-5.210675 2.139733L620.441293 718.297506c-6.502088 0-15.963577-9.419534-15.963577-15.922644L604.477716 496.254388c0-4.125971 3.361561-5.599532 2.194992-5.599532l289.339828 0c19.49296 0 35.691897-22.050202 35.691897-41.543162L931.704432 190.158944c0-19.49296-16.198937-40.958854-35.691897-40.958854L114.468566 149.20009c-12.740162 0-24.175609 8.795317-30.566156 19.826558-3.737114 6.432503-5.043876 22.855544-4.446265 22.855544L63.839469 191.882192l0 216.660528c0 18.131963 14.755052 39.431058 32.900318 39.431058l120.598682 0 14.408151 25.037233c6.28003 10.989285 18.034748 17.644869 30.692023 17.644869L490.658438 490.655879l0 297.779034c0 22.202675 21.535479 43.682895 43.724851 43.682895l335.202365 0c4.139274 0 5.210675-4.224208 5.210675-5.390777l0 16.588817c0 15.671934 19.325138 31.484062 34.984792 31.484062l50.377364 0 0-31.53932-50.307779 0.056282-3.62762-51.628868c0.083911-1.084705-2.973728-2.140757-2.973728-3.252067l0-34.011628c0-2.056845 2.988054-1.778506 2.696412-3.751441l2.988054-46.599318L960.158485 704.07355zM108.508831 183.879937c0.597611-1.028423 2.376117-6.224772 5.960759-6.224772l781.542946 0c3.793396 0 7.236821 8.698103 7.236821 12.504802l0 87.087451L160.08244 277.247418l-51.602262-88.393189C106.701672 185.741331 107.91122 184.934966 108.508831 183.879937zM96.74081 419.518702c-2.445702 0-4.446265-8.531304-4.446265-10.977006l0-185.955202L201.08325 419.518702 96.74081 419.518702zM256.450255 452.308503l-80.111572-146.608056 726.910675 0 0 143.41227c0 3.793396-3.443425 13.088086-7.236821 13.088086l-327.631946 0-48.085158 0L262.438643 462.200804C259.965312 462.200804 257.673106 454.448236 256.450255 452.308503zM869.585653 803.662733 534.383288 803.662733c-6.503111 0-15.269775-8.724709-15.269775-15.22782L519.113513 490.655879l49.267077 0c6.517437 0 7.643074-0.916882 7.643074 5.599532l0 206.121498c0 22.202675 22.229281 44.376697 44.417629 44.376697l249.145383 0c6.515391 0 5.210675 1.167592 5.210675 7.66968l0 34.011628C874.796328 794.937001 876.101043 803.662733 869.585653 803.662733z" p-id="3266" fill="#e6e6e6"></path></svg>